<svg id="visual" viewBox="0 0 1890 1080" width="1890" height="1080" xmlns="http://www.w3.org/2000/svg" xmlns:xlink="http://www.w3.org/1999/xlink" version="1.1"><rect x="0" y="0" width="1890" height="1080" fill="#f5f5f5"></rect><g fill="#f9f1d1"><circle r="128" cx="1269" cy="901"></circle><circle r="96" cx="193" cy="311"></circle><circle r="126" cx="1199" cy="505"></circle><circle r="108" cx="1010" cy="176"></circle><circle r="119" cx="1408" cy="84"></circle><circle r="104" cx="651" cy="607"></circle><circle r="110" cx="1672" cy="331"></circle><circle r="117" cx="221" cy="858"></circle><circle r="115" cx="1634" cy="708"></circle><circle r="125" cx="105" cy="568"></circle><circle r="122" cx="132" cy="54"></circle><circle r="101" cx="675" cy="890"></circle><circle r="119" cx="1881" cy="824"></circle><circle r="102" cx="552" cy="288"></circle><circle r="121" cx="432" cy="1060"></circle><circle r="106" cx="391" cy="63"></circle><circle r="102" cx="944" cy="962"></circle><circle r="109" cx="1751" cy="36"></circle><circle r="108" cx="1593" cy="978"></circle><circle r="121" cx="799" cy="30"></circle><circle r="124" cx="393" cy="650"></circle><circle r="116" cx="890" cy="699"></circle><circle r="109" cx="73" cy="1068"></circle><circle r="111" cx="1418" cy="373"></circle><circle r="119" cx="1829" cy="1076"></circle><circle r="102" cx="870" cy="414"></circle></g></svg>