<svg id="visual" viewBox="0 0 1890 1080" width="1890" height="1080" xmlns="http://www.w3.org/2000/svg" xmlns:xlink="http://www.w3.org/1999/xlink" version="1.1"><rect width="1890" height="1080" fill="#f5f5f5"></rect><g><g transform="translate(1425 992)"><path d="M0 -150.1L130 -75.1L130 75.1L0 150.1L-130 75.1L-130 -75.1Z" fill="#f9f1d1"></path></g><g transform="translate(1060 883)"><path d="M0 -19L16.5 -9.5L16.5 9.5L0 19L-16.5 9.5L-16.5 -9.5Z" fill="#f9f1d1"></path></g><g transform="translate(1881 111)"><path d="M0 -46L39.8 -23L39.8 23L0 46L-39.8 23L-39.8 -23Z" fill="#f9f1d1"></path></g><g transform="translate(54 472)"><path d="M0 -100L86.6 -50L86.6 50L0 100L-86.6 50L-86.6 -50Z" fill="#f9f1d1"></path></g><g transform="translate(666 423)"><path d="M0 -58L50.2 -29L50.2 29L0 58L-50.2 29L-50.2 -29Z" fill="#f9f1d1"></path></g><g transform="translate(219 875)"><path d="M0 -136L117.8 -68L117.8 68L0 136L-117.8 68L-117.8 -68Z" fill="#f9f1d1"></path></g><g transform="translate(1857 850)"><path d="M0 -101L87.5 -50.5L87.5 50.5L0 101L-87.5 50.5L-87.5 -50.5Z" fill="#f9f1d1"></path></g><g transform="translate(256 16)"><path d="M0 -27L23.4 -13.5L23.4 13.5L0 27L-23.4 13.5L-23.4 -13.5Z" fill="#f9f1d1"></path></g><g transform="translate(1332 184)"><path d="M0 -116L100.5 -58L100.5 58L0 116L-100.5 58L-100.5 -58Z" fill="#f9f1d1"></path></g><g transform="translate(1000 564)"><path d="M0 -75L65 -37.5L65 37.5L0 75L-65 37.5L-65 -37.5Z" fill="#f9f1d1"></path></g><g transform="translate(1004 191)"><path d="M0 -67L58 -33.5L58 33.5L0 67L-58 33.5L-58 -33.5Z" fill="#f9f1d1"></path></g><g transform="translate(761 816)"><path d="M0 -138L119.5 -69L119.5 69L0 138L-119.5 69L-119.5 -69Z" fill="#f9f1d1"></path></g><g transform="translate(597 104)"><path d="M0 -23L19.9 -11.5L19.9 11.5L0 23L-19.9 11.5L-19.9 -11.5Z" fill="#f9f1d1"></path></g><g transform="translate(1516 671)"><path d="M0 -44L38.1 -22L38.1 22L0 44L-38.1 22L-38.1 -22Z" fill="#f9f1d1"></path></g><g transform="translate(352 366)"><path d="M0 -35L30.3 -17.5L30.3 17.5L0 35L-30.3 17.5L-30.3 -17.5Z" fill="#f9f1d1"></path></g><g transform="translate(1621 378)"><path d="M0 -118L102.2 -59L102.2 59L0 118L-102.2 59L-102.2 -59Z" fill="#f9f1d1"></path></g><g transform="translate(486 1041)"><path d="M0 -129L111.7 -64.5L111.7 64.5L0 129L-111.7 64.5L-111.7 -64.5Z" fill="#f9f1d1"></path></g><g transform="translate(1586 11)"><path d="M0 -108L93.5 -54L93.5 54L0 108L-93.5 54L-93.5 -54Z" fill="#f9f1d1"></path></g></g></svg>